<?xml version="1.0" ?><svg width="512px" height="512px" viewBox="0 0 512 512" id="svg2793" style="fill-rule:evenodd;clip-rule:evenodd;stroke-linejoin:round;stroke-miterlimit:2;" version="1.1" xml:space="preserve" xmlns="http://www.w3.org/2000/svg" xmlns:cc="http://creativecommons.org/ns#" xmlns:dc="http://purl.org/dc/elements/1.1/" xmlns:rdf="http://www.w3.org/1999/02/22-rdf-syntax-ns#" xmlns:serif="http://www.serif.com/" xmlns:svg="http://www.w3.org/2000/svg"><defs id="defs2797"/><g id="g2661" style="display:inline" transform="translate(465.226,65.75)"><g id="_07-Flowchart"><path d="m 0,380.5 h -92.191 c -6.398,-20.742 -25.744,-35.859 -48.557,-35.859 h -53.48 v -63.497 l 75.891,-75.894 H 0 Z m -140.748,35.75 h -136.96 c -11.471,0 -20.803,-9.33 -20.803,-20.8 0,-11.474 9.332,-20.809 20.803,-20.809 h 136.96 c 11.472,0 20.804,9.335 20.804,20.809 0,11.47 -9.332,20.8 -20.804,20.8 M -418.453,0.061 h 92.204 c 6.415,20.71 25.748,35.799 48.541,35.799 h 53.48 v 63.507 l -80.283,80.276 c -2.813,2.813 -4.394,6.628 -4.394,10.607 0,3.979 1.58,7.793 4.393,10.606 l 80.284,80.288 v 63.497 h -53.48 c -22.813,0 -42.158,15.117 -48.556,35.859 h -92.189 z m 140.745,-35.811 h 136.96 c 11.472,0 20.804,9.336 20.804,20.811 0,11.468 -9.332,20.799 -20.804,20.799 h -136.96 c -11.471,0 -20.803,-9.331 -20.803,-20.799 0,-11.475 9.332,-20.811 20.803,-20.811 m 68.48,289.467 -63.463,-63.467 63.463,-63.457 63.464,63.457 z M 15,175.25 h -133.338 l -75.89,-75.883 V 35.86 h 53.48 c 28.014,0 50.804,-22.789 50.804,-50.799 0,-28.018 -22.79,-50.811 -50.804,-50.811 h -136.96 c -22.794,0 -42.128,15.093 -48.542,35.811 h -107.203 c -8.284,0 -15,6.714 -15,15 V 395.5 c 0,8.284 6.716,15 15,15 h 107.218 c 6.43,20.687 25.752,35.75 48.527,35.75 h 136.96 c 22.776,0 42.098,-15.063 48.528,-35.75 H 15 c 8.284,0 15,-6.716 15,-15 V 190.25 c 0,-8.284 -6.716,-15 -15,-15" id="path2658" style="fill-rule:nonzero"/></g></g></svg>