<?xml version="1.0" ?><!DOCTYPE svg  PUBLIC '-//W3C//DTD SVG 1.1//EN'  'http://www.w3.org/Graphics/SVG/1.1/DTD/svg11.dtd'><svg width="846.66px" height="846.66px" viewBox="0 0 846.66 846.66" style="shape-rendering:geometricPrecision; text-rendering:geometricPrecision; image-rendering:optimizeQuality; fill-rule:evenodd; clip-rule:evenodd" version="1.1" xml:space="preserve" xmlns="http://www.w3.org/2000/svg" xmlns:xlink="http://www.w3.org/1999/xlink"><defs><style type="text/css">
   <![CDATA[
    .fil0 {fill:black;fill-rule:nonzero}
   ]]>
  </style></defs><g id="Layer_x0020_1"><path class="fil0" d="M519.94 85.69l145.53 0c52.57,0 95.5,42.93 95.5,95.5l0 145.53 55.28 0c11.41,0 20.66,9.26 20.66,20.67l0 151.88c0,11.41 -9.25,20.67 -20.66,20.67l-55.28 0 0 145.52c0,52.58 -42.93,95.51 -95.5,95.51l-145.53 0 0 55.28c0,11.41 -9.26,20.66 -20.67,20.66l-151.88 0c-11.41,0 -20.67,-9.25 -20.67,-20.66l0 -55.28 -145.52 0c-52.58,0 -95.51,-42.93 -95.51,-95.51l0 -145.52 -55.28 0c-11.41,0 -20.66,-9.26 -20.66,-20.67l0 -151.88c0,-11.41 9.25,-20.67 20.66,-20.67l55.28 0 0 -145.53c0,-52.57 42.93,-95.5 95.51,-95.5l145.52 0 0 -55.28c0,-11.41 9.26,-20.66 20.67,-20.66l151.88 0c11.41,0 20.67,9.25 20.67,20.66l0 55.28zm199.7 241.03l0 -145.53c0,-29.75 -24.42,-54.17 -54.17,-54.17l-145.53 0 0 55.27c0,11.42 -9.26,20.67 -20.67,20.67l-151.88 0c-11.41,0 -20.67,-9.25 -20.67,-20.67l0 -55.27 -145.52 0c-29.76,0 -54.18,24.42 -54.18,54.17l0 145.53 55.27 0c11.42,0 20.67,9.26 20.67,20.67l0 151.88c0,11.41 -9.25,20.67 -20.67,20.67l-55.27 0 0 145.52c0,29.76 24.42,54.18 54.18,54.18l145.52 0 0 -55.27c0,-11.42 9.26,-20.67 20.67,-20.67l151.88 0c11.41,0 20.67,9.25 20.67,20.67l0 55.27 145.53 0c29.75,0 54.17,-24.42 54.17,-54.18l0 -145.52 -55.27 0c-11.42,0 -20.67,-9.26 -20.67,-20.67l0 -151.88c0,-11.41 9.25,-20.67 20.67,-20.67l55.27 0zm-241.03 358.31l-110.56 0 0 110.55 110.56 0 0 -110.55zm206.42 -316.98l0 110.56 110.55 0 0 -110.56 -110.55 0zm-633.95 0l0 110.56 110.55 0 0 -110.56 -110.55 0zm427.53 -316.97l-110.56 0 0 110.55 110.56 0 0 -110.55z"/></g></svg>