<?xml version="1.0" encoding="iso-8859-1"?>
<!-- Generator: Adobe Illustrator 19.0.0, SVG Export Plug-In . SVG Version: 6.00 Build 0)  -->
<svg version="1.1" id="Layer_1" xmlns="http://www.w3.org/2000/svg" xmlns:xlink="http://www.w3.org/1999/xlink" x="0px" y="0px"
	 viewBox="0 0 512 512" style="enable-background:new 0 0 512 512;" xml:space="preserve">
<g>
	<g>
		<path d="M507.008,241.312c-4.079-4.079-9.966-5.764-15.583-4.471l-118.209,23.64c-5.914,1.374-10.632,5.845-12.301,11.686
			c-1.682,5.838-0.05,12.132,4.244,16.427l11.822,11.822l-82.744,82.744c-6.529,6.529-17.113,6.529-23.641,0l-35.462-35.462
			l165.489-165.49l11.822,11.822c4.294,4.294,10.59,5.926,16.426,4.244c5.841-1.671,10.312-6.387,11.686-12.301l23.639-118.209
			c1.293-5.618-0.392-11.505-4.471-15.583c-4.079-4.079-9.965-5.764-15.583-4.471L325.936,71.349
			c-5.914,1.374-10.632,5.845-12.301,11.686c-1.682,5.838-0.05,12.132,4.244,16.427l11.822,11.822L164.212,276.773l-35.462-35.462
			c-6.528-6.529-6.528-17.113,0-23.641l82.744-82.744l11.822,11.822c4.294,4.294,10.59,5.926,16.426,4.244
			c5.841-1.669,10.312-6.387,11.686-12.301l23.639-118.209c1.293-5.618-0.392-11.505-4.471-15.583s-9.966-5.764-15.584-4.471
			l-118.206,23.64c-5.914,1.374-10.632,5.845-12.301,11.686c-1.682,5.838-0.05,12.132,4.244,16.426l11.822,11.822l-82.744,82.744
			c-45.698,45.698-45.698,119.79,0,165.49l35.462,35.462L4.978,436.192c-6.516,6.53-6.511,17.105,0.012,23.629l47.282,47.283
			c6.533,6.533,17.127,6.527,23.653-0.012l88.285-88.47l35.462,35.462c45.698,45.698,119.791,45.698,165.488,0l82.744-82.744
			l11.822,11.822c4.294,4.294,10.59,5.926,16.426,4.244c5.841-1.669,10.312-6.387,11.686-12.301l23.639-118.209
			C512.772,251.278,511.087,245.391,507.008,241.312z M461.285,337.43l-13.376-13.375l-23.641,23.641l-15.761,15.761l-66.984,66.984
			c-32.641,32.643-85.565,32.641-118.206,0l-35.462-35.462l-23.643-23.64l-23.641,23.641l-76.465,76.675l-23.641-23.641
			l76.465-76.675l23.641-23.641l-23.641-23.641l-35.462-35.462c-32.641-32.641-32.641-85.565,0-118.206l66.984-66.984l15.761-15.761
			l23.641-23.641l-13.382-13.383l63.002-12.595l-12.601,62.994l-13.375-13.375l-23.641,23.641l-15.761,15.761l-66.984,66.984
			c-19.586,19.586-19.586,51.339,0,70.924l35.462,35.462l23.641,23.641l23.641-23.641l141.847-141.847l23.641-23.641l23.641-23.641
			l-13.382-13.384l63.002-12.594l-12.601,62.994l-13.375-13.375l-23.641,23.641l-23.641,23.641L211.495,324.055l-23.641,23.641
			l23.641,23.641l35.462,35.462c19.586,19.584,51.339,19.584,70.924,0l66.984-66.984l15.761-15.761l23.641-23.641l-13.382-13.384
			l63.002-12.595L461.285,337.43z"/>
	</g>
</g>
<g>
</g>
<g>
</g>
<g>
</g>
<g>
</g>
<g>
</g>
<g>
</g>
<g>
</g>
<g>
</g>
<g>
</g>
<g>
</g>
<g>
</g>
<g>
</g>
<g>
</g>
<g>
</g>
<g>
</g>
</svg>
